# MagicaVoxel @ Ephtracy

# group
o 

# material
mtllib road_half_line.mtl
usemtl palette

# normals
vn -1 0 0
vn 1 0 0
vn 0 0 1
vn 0 0 -1
vn 0 -1 0
vn 0 1 0

# texcoords
vt 0.970703 0.5
vt 0.974609 0.5
vt 0.978516 0.5
vt 0.982422 0.5
vt 0.990234 0.5
vt 0.994141 0.5

# verts
v -5 0 5
v -5 0 -5
v -5 0.2 5
v -5 0.2 -5
v -3.4 0.2 5
v -3.4 0.2 -5
v -3.4 0.3 5
v -3.4 0.3 -5
v -2.6 0.1 5
v -2.6 0.1 -5
v -2.6 0.3 5
v -2.6 0.3 -5
v 5 0 5
v 5 0 4.5
v 5 0 3.5
v 5 0 2.5
v 5 0 1.5
v 5 0 0.5
v 5 0 -0.5
v 5 0 -1.5
v 5 0 -2.5
v 5 0 -3.5
v 5 0 -4.5
v 5 0 -5
v 5 0.1 5
v 5 0.1 4.5
v 5 0.1 3.5
v 5 0.1 2.5
v 5 0.1 1.5
v 5 0.1 0.5
v 5 0.1 -0.5
v 5 0.1 -1.5
v 5 0.1 -2.5
v 5 0.1 -3.5
v 5 0.1 -4.5
v 5 0.1 -5
v -5 0 5
v -5 0.2 5
v -3.6 0 5
v -3.6 0.2 5
v -3.4 0 5
v -3.4 0.2 5
v -3.4 0.3 5
v -2.6 0 5
v -2.6 0.1 5
v -2.6 0.3 5
v 5 0 5
v 5 0.1 5
v -5 0 -5
v -5 0.2 -5
v -3.6 0 -5
v -3.6 0.2 -5
v -3.4 0 -5
v -3.4 0.2 -5
v -3.4 0.3 -5
v -2.6 0 -5
v -2.6 0.1 -5
v -2.6 0.3 -5
v 5 0 -5
v 5 0.1 -5
v -5 0 5
v -3.6 0 5
v -3.4 0 5
v -2.6 0 5
v 5 0 5
v -0.9 0 4.8
v -0.8 0 4.8
v -0.2 0 4.6
v 0 0 4.6
v 0.4 0 4.5
v 0.5 0 4.5
v 4.9 0 4.5
v 5 0 4.5
v 0 0 3.8
v 0.1 0 3.8
v -0.9 0 3.6
v -0.8 0 3.6
v 1.9 0 3.5
v 2.1 0 3.5
v 4.9 0 3.5
v 5 0 3.5
v -0.2 0 3.4
v -0.0999999 0 3.4
v -0.7 0 3.2
v -0.6 0 3.2
v 0.4 0 3
v 0.5 0 3
v 3.3 0 2.9
v 3.4 0 2.9
v 4.9 0 2.5
v 5 0 2.5
v -0.7 0 2.3
v -0.6 0 2.3
v -0.3 0 2.3
v -0.0999999 0 2.3
v -0.0999999 0 2.2
v 0.1 0 2.2
v 3.3 0 2
v 3.4 0 2
v -0.3 0 1.5
v -0.0999999 0 1.5
v 4.9 0 1.5
v 5 0 1.5
v 1.9 0 1.4
v 2.1 0 1.4
v -1.1 0 0.6
v -1 0 0.6
v -0.6 0 0.6
v -0.4 0 0.6
v 3 0 0.5
v 3.1 0 0.5
v 4.9 0 0.5
v 5 0 0.5
v -1.1 0 -0.1
v -1 0 -0.1
v 1.2 0 -0.2
v 1.4 0 -0.2
v 3.1 0 -0.5
v 3.3 0 -0.5
v 4.9 0 -0.5
v 5 0 -0.5
v 2.4 0 -0.6
v 2.5 0 -0.6
v 0.1 0 -0.9
v 0.2 0 -0.9
v -0.6 0 -1.2
v -0.4 0 -1.2
v 4.9 0 -1.5
v 5 0 -1.5
v 0.1 0 -1.8
v 0.2 0 -1.8
v 1.2 0 -2.1
v 1.4 0 -2.1
v 0.1 0 -2.5
v 0.2 0 -2.5
v 4.9 0 -2.5
v 5 0 -2.5
v 3.1 0 -2.8
v 3.3 0 -2.8
v 0.1 0 -3.3
v 0.2 0 -3.3
v -1.3 0 -3.4
v -1.1 0 -3.4
v 4.9 0 -3.5
v 5 0 -3.5
v 3 0 -4.3
v 3.1 0 -4.3
v -1.3 0 -4.5
v -1.1 0 -4.5
v 2.4 0 -4.5
v 2.5 0 -4.5
v 4.9 0 -4.5
v 5 0 -4.5
v -5 0 -5
v -3.6 0 -5
v -3.4 0 -5
v -2.6 0 -5
v 5 0 -5
v -2.6 0.1 5
v 5 0.1 5
v -0.9 0.1 4.8
v -0.8 0.1 4.8
v -0.2 0.1 4.6
v 0 0.1 4.6
v 0.4 0.1 4.5
v 0.5 0.1 4.5
v 4.9 0.1 4.5
v 5 0.1 4.5
v 0 0.1 3.8
v 0.1 0.1 3.8
v -0.9 0.1 3.6
v -0.8 0.1 3.6
v 1.9 0.1 3.5
v 2.1 0.1 3.5
v 4.9 0.1 3.5
v 5 0.1 3.5
v -0.2 0.1 3.4
v -0.0999999 0.1 3.4
v -0.7 0.1 3.2
v -0.6 0.1 3.2
v 0.4 0.1 3
v 0.5 0.1 3
v 3.3 0.1 2.9
v 3.4 0.1 2.9
v 4.9 0.1 2.5
v 5 0.1 2.5
v -0.7 0.1 2.3
v -0.6 0.1 2.3
v -0.3 0.1 2.3
v -0.0999999 0.1 2.3
v -0.0999999 0.1 2.2
v 0.1 0.1 2.2
v 3.3 0.1 2
v 3.4 0.1 2
v -0.3 0.1 1.5
v -0.0999999 0.1 1.5
v 4.9 0.1 1.5
v 5 0.1 1.5
v 1.9 0.1 1.4
v 2.1 0.1 1.4
v -1.1 0.1 0.6
v -1 0.1 0.6
v -0.6 0.1 0.6
v -0.4 0.1 0.6
v 3 0.1 0.5
v 3.1 0.1 0.5
v 4.9 0.1 0.5
v 5 0.1 0.5
v -1.1 0.1 -0.1
v -1 0.1 -0.1
v 1.2 0.1 -0.2
v 1.4 0.1 -0.2
v 3.1 0.1 -0.5
v 3.3 0.1 -0.5
v 4.9 0.1 -0.5
v 5 0.1 -0.5
v 2.4 0.1 -0.6
v 2.5 0.1 -0.6
v 0.1 0.1 -0.9
v 0.2 0.1 -0.9
v -0.6 0.1 -1.2
v -0.4 0.1 -1.2
v 4.9 0.1 -1.5
v 5 0.1 -1.5
v 0.1 0.1 -1.8
v 0.2 0.1 -1.8
v 1.2 0.1 -2.1
v 1.4 0.1 -2.1
v 0.1 0.1 -2.5
v 0.2 0.1 -2.5
v 4.9 0.1 -2.5
v 5 0.1 -2.5
v 3.1 0.1 -2.8
v 3.3 0.1 -2.8
v 0.1 0.1 -3.3
v 0.2 0.1 -3.3
v -1.3 0.1 -3.4
v -1.1 0.1 -3.4
v 4.9 0.1 -3.5
v 5 0.1 -3.5
v 3 0.1 -4.3
v 3.1 0.1 -4.3
v -1.3 0.1 -4.5
v -1.1 0.1 -4.5
v 2.4 0.1 -4.5
v 2.5 0.1 -4.5
v 4.9 0.1 -4.5
v 5 0.1 -4.5
v -2.6 0.1 -5
v 5 0.1 -5
v -5 0.2 5
v -3.6 0.2 5
v -3.4 0.2 5
v -5 0.2 -5
v -3.6 0.2 -5
v -3.4 0.2 -5
v -3.4 0.3 5
v -2.6 0.3 5
v -3.4 0.3 -5
v -2.6 0.3 -5

# faces
f 3/3/1 2/3/1 1/3/1
f 4/3/1 2/3/1 3/3/1
f 7/4/1 6/4/1 5/4/1
f 8/4/1 6/4/1 7/4/1
f 9/4/2 10/4/2 11/4/2
f 11/4/2 10/4/2 12/4/2
f 13/1/2 14/1/2 25/1/2
f 14/5/2 15/5/2 26/5/2
f 25/1/2 14/1/2 26/1/2
f 15/1/2 16/1/2 27/1/2
f 26/5/2 15/5/2 27/5/2
f 16/5/2 17/5/2 28/5/2
f 27/1/2 16/1/2 28/1/2
f 17/1/2 18/1/2 29/1/2
f 28/5/2 17/5/2 29/5/2
f 18/5/2 19/5/2 30/5/2
f 29/1/2 18/1/2 30/1/2
f 19/1/2 20/1/2 31/1/2
f 30/5/2 19/5/2 31/5/2
f 20/5/2 21/5/2 32/5/2
f 31/1/2 20/1/2 32/1/2
f 21/1/2 22/1/2 33/1/2
f 32/5/2 21/5/2 33/5/2
f 22/5/2 23/5/2 34/5/2
f 33/1/2 22/1/2 34/1/2
f 23/1/2 24/1/2 35/1/2
f 34/5/2 23/5/2 35/5/2
f 35/1/2 24/1/2 36/1/2
f 39/3/3 38/3/3 37/3/3
f 40/3/3 38/3/3 39/3/3
f 41/6/3 40/6/3 39/6/3
f 42/6/3 40/6/3 41/6/3
f 44/4/3 42/4/3 41/4/3
f 44/4/3 43/4/3 42/4/3
f 45/4/3 43/4/3 44/4/3
f 46/4/3 43/4/3 45/4/3
f 47/1/3 45/1/3 44/1/3
f 48/1/3 45/1/3 47/1/3
f 49/3/4 50/3/4 51/3/4
f 51/3/4 50/3/4 52/3/4
f 51/6/4 52/6/4 53/6/4
f 53/6/4 52/6/4 54/6/4
f 53/4/4 54/4/4 56/4/4
f 54/4/4 55/4/4 56/4/4
f 56/4/4 55/4/4 57/4/4
f 57/4/4 55/4/4 58/4/4
f 56/1/4 57/1/4 59/1/4
f 59/1/4 57/1/4 60/1/4
f 66/1/5 65/1/5 64/1/5
f 67/1/5 65/1/5 66/1/5
f 68/1/5 65/1/5 67/1/5
f 69/1/5 65/1/5 68/1/5
f 70/1/5 65/1/5 69/1/5
f 71/1/5 65/1/5 70/1/5
f 72/1/5 65/1/5 71/1/5
f 73/1/5 65/1/5 72/1/5
f 74/2/5 69/2/5 68/2/5
f 74/1/5 70/1/5 69/1/5
f 75/1/5 70/1/5 74/1/5
f 76/1/5 66/1/5 64/1/5
f 76/2/5 67/2/5 66/2/5
f 77/1/5 68/1/5 67/1/5
f 77/2/5 67/2/5 76/2/5
f 78/1/5 72/1/5 71/1/5
f 79/1/5 72/1/5 78/1/5
f 80/5/5 73/5/5 72/5/5
f 80/1/5 72/1/5 79/1/5
f 81/5/5 73/5/5 80/5/5
f 82/2/5 75/2/5 74/2/5
f 82/1/5 68/1/5 77/1/5
f 82/2/5 74/2/5 68/2/5
f 82/1/5 77/1/5 76/1/5
f 83/2/5 75/2/5 82/2/5
f 84/1/5 82/1/5 76/1/5
f 84/1/5 83/1/5 82/1/5
f 85/1/5 83/1/5 84/1/5
f 86/1/5 70/1/5 75/1/5
f 86/2/5 71/2/5 70/2/5
f 87/1/5 78/1/5 71/1/5
f 87/2/5 71/2/5 86/2/5
f 88/1/5 81/1/5 80/1/5
f 88/1/5 80/1/5 79/1/5
f 89/1/5 81/1/5 88/1/5
f 90/1/5 81/1/5 89/1/5
f 91/1/5 81/1/5 90/1/5
f 92/2/5 85/2/5 84/2/5
f 92/1/5 84/1/5 76/1/5
f 93/1/5 83/1/5 85/1/5
f 93/2/5 85/2/5 92/2/5
f 94/1/5 83/1/5 93/1/5
f 95/2/5 75/2/5 83/2/5
f 95/1/5 83/1/5 94/1/5
f 96/2/5 95/2/5 94/2/5
f 96/2/5 75/2/5 95/2/5
f 97/1/5 87/1/5 86/1/5
f 97/2/5 75/2/5 96/2/5
f 97/1/5 86/1/5 75/1/5
f 98/1/5 88/1/5 79/1/5
f 98/2/5 89/2/5 88/2/5
f 99/1/5 90/1/5 89/1/5
f 99/2/5 89/2/5 98/2/5
f 100/2/5 96/2/5 94/2/5
f 100/1/5 93/1/5 92/1/5
f 100/1/5 94/1/5 93/1/5
f 101/1/5 97/1/5 96/1/5
f 101/2/5 96/2/5 100/2/5
f 102/1/5 90/1/5 99/1/5
f 102/1/5 99/1/5 98/1/5
f 102/5/5 91/5/5 90/5/5
f 103/5/5 91/5/5 102/5/5
f 104/2/5 79/2/5 78/2/5
f 104/1/5 78/1/5 87/1/5
f 104/1/5 97/1/5 101/1/5
f 104/1/5 101/1/5 100/1/5
f 104/1/5 87/1/5 97/1/5
f 105/1/5 103/1/5 102/1/5
f 105/2/5 79/2/5 104/2/5
f 105/1/5 102/1/5 98/1/5
f 105/1/5 98/1/5 79/1/5
f 106/1/5 92/1/5 76/1/5
f 106/1/5 76/1/5 64/1/5
f 106/1/5 105/1/5 104/1/5
f 106/1/5 100/1/5 92/1/5
f 106/1/5 104/1/5 100/1/5
f 107/1/5 105/1/5 106/1/5
f 108/1/5 105/1/5 107/1/5
f 109/1/5 105/1/5 108/1/5
f 110/1/5 103/1/5 105/1/5
f 110/1/5 105/1/5 109/1/5
f 111/1/5 103/1/5 110/1/5
f 112/1/5 103/1/5 111/1/5
f 113/1/5 103/1/5 112/1/5
f 114/1/5 106/1/5 64/1/5
f 114/2/5 107/2/5 106/2/5
f 115/1/5 108/1/5 107/1/5
f 115/2/5 107/2/5 114/2/5
f 116/1/5 110/1/5 109/1/5
f 117/1/5 110/1/5 116/1/5
f 118/2/5 111/2/5 110/2/5
f 118/1/5 112/1/5 111/1/5
f 119/1/5 112/1/5 118/1/5
f 120/5/5 113/5/5 112/5/5
f 120/1/5 112/1/5 119/1/5
f 121/5/5 113/5/5 120/5/5
f 122/1/5 110/1/5 117/1/5
f 123/1/5 110/1/5 122/1/5
f 124/1/5 116/1/5 109/1/5
f 125/1/5 116/1/5 124/1/5
f 126/2/5 109/2/5 108/2/5
f 126/1/5 108/1/5 115/1/5
f 126/1/5 115/1/5 114/1/5
f 127/1/5 124/1/5 109/1/5
f 127/2/5 109/2/5 126/2/5
f 128/1/5 120/1/5 119/1/5
f 128/1/5 121/1/5 120/1/5
f 129/1/5 121/1/5 128/1/5
f 130/2/5 125/2/5 124/2/5
f 130/1/5 124/1/5 127/1/5
f 130/1/5 127/1/5 126/1/5
f 131/1/5 116/1/5 125/1/5
f 131/2/5 125/2/5 130/2/5
f 132/2/5 117/2/5 116/2/5
f 132/1/5 116/1/5 131/1/5
f 132/1/5 131/1/5 130/1/5
f 133/1/5 122/1/5 117/1/5
f 133/2/5 117/2/5 132/2/5
f 134/1/5 130/1/5 126/1/5
f 134/1/5 132/1/5 130/1/5
f 134/1/5 133/1/5 132/1/5
f 135/1/5 133/1/5 134/1/5
f 136/5/5 129/5/5 128/5/5
f 136/1/5 128/1/5 119/1/5
f 137/5/5 129/5/5 136/5/5
f 138/2/5 119/2/5 118/2/5
f 138/2/5 118/2/5 110/2/5
f 139/1/5 137/1/5 136/1/5
f 139/2/5 119/2/5 138/2/5
f 139/1/5 136/1/5 119/1/5
f 140/2/5 135/2/5 134/2/5
f 140/1/5 134/1/5 126/1/5
f 141/1/5 133/1/5 135/1/5
f 141/2/5 135/2/5 140/2/5
f 142/1/5 114/1/5 64/1/5
f 142/1/5 126/1/5 114/1/5
f 142/1/5 141/1/5 140/1/5
f 142/1/5 140/1/5 126/1/5
f 143/1/5 141/1/5 142/1/5
f 144/1/5 139/1/5 138/1/5
f 144/1/5 137/1/5 139/1/5
f 145/1/5 137/1/5 144/1/5
f 146/1/5 110/1/5 123/1/5
f 146/2/5 138/2/5 110/2/5
f 147/1/5 144/1/5 138/1/5
f 147/2/5 138/2/5 146/2/5
f 148/2/5 143/2/5 142/2/5
f 148/1/5 142/1/5 64/1/5
f 149/1/5 141/1/5 143/1/5
f 149/2/5 143/2/5 148/2/5
f 150/1/5 122/1/5 133/1/5
f 150/1/5 141/1/5 149/1/5
f 150/1/5 133/1/5 141/1/5
f 150/2/5 123/2/5 122/2/5
f 151/1/5 146/1/5 123/1/5
f 151/2/5 123/2/5 150/2/5
f 151/1/5 147/1/5 146/1/5
f 152/1/5 144/1/5 147/1/5
f 152/1/5 147/1/5 151/1/5
f 152/5/5 145/5/5 144/5/5
f 153/5/5 145/5/5 152/5/5
f 154/3/5 62/3/5 61/3/5
f 155/6/5 63/6/5 62/6/5
f 155/3/5 62/3/5 154/3/5
f 156/4/5 64/4/5 63/4/5
f 156/6/5 63/6/5 155/6/5
f 157/1/5 149/1/5 148/1/5
f 157/4/5 64/4/5 156/4/5
f 157/1/5 150/1/5 149/1/5
f 157/1/5 153/1/5 152/1/5
f 157/1/5 152/1/5 151/1/5
f 157/1/5 151/1/5 150/1/5
f 157/1/5 148/1/5 64/1/5
f 158/1/5 153/1/5 157/1/5
f 159/1/6 160/1/6 161/1/6
f 161/1/6 160/1/6 162/1/6
f 162/1/6 160/1/6 163/1/6
f 163/1/6 160/1/6 164/1/6
f 164/1/6 160/1/6 165/1/6
f 165/1/6 160/1/6 166/1/6
f 166/1/6 160/1/6 167/1/6
f 167/1/6 160/1/6 168/1/6
f 163/2/6 164/2/6 169/2/6
f 164/1/6 165/1/6 169/1/6
f 169/1/6 165/1/6 170/1/6
f 159/1/6 161/1/6 171/1/6
f 161/2/6 162/2/6 171/2/6
f 162/1/6 163/1/6 172/1/6
f 171/2/6 162/2/6 172/2/6
f 166/1/6 167/1/6 173/1/6
f 173/1/6 167/1/6 174/1/6
f 167/5/6 168/5/6 175/5/6
f 174/1/6 167/1/6 175/1/6
f 175/5/6 168/5/6 176/5/6
f 169/2/6 170/2/6 177/2/6
f 172/1/6 163/1/6 177/1/6
f 163/2/6 169/2/6 177/2/6
f 171/1/6 172/1/6 177/1/6
f 177/2/6 170/2/6 178/2/6
f 171/1/6 177/1/6 179/1/6
f 177/1/6 178/1/6 179/1/6
f 179/1/6 178/1/6 180/1/6
f 170/1/6 165/1/6 181/1/6
f 165/2/6 166/2/6 181/2/6
f 166/1/6 173/1/6 182/1/6
f 181/2/6 166/2/6 182/2/6
f 175/1/6 176/1/6 183/1/6
f 174/1/6 175/1/6 183/1/6
f 183/1/6 176/1/6 184/1/6
f 184/1/6 176/1/6 185/1/6
f 185/1/6 176/1/6 186/1/6
f 179/2/6 180/2/6 187/2/6
f 171/1/6 179/1/6 187/1/6
f 180/1/6 178/1/6 188/1/6
f 187/2/6 180/2/6 188/2/6
f 188/1/6 178/1/6 189/1/6
f 178/2/6 170/2/6 190/2/6
f 189/1/6 178/1/6 190/1/6
f 189/2/6 190/2/6 191/2/6
f 190/2/6 170/2/6 191/2/6
f 181/1/6 182/1/6 192/1/6
f 191/2/6 170/2/6 192/2/6
f 170/1/6 181/1/6 192/1/6
f 174/1/6 183/1/6 193/1/6
f 183/2/6 184/2/6 193/2/6
f 184/1/6 185/1/6 194/1/6
f 193/2/6 184/2/6 194/2/6
f 189/2/6 191/2/6 195/2/6
f 187/1/6 188/1/6 195/1/6
f 188/1/6 189/1/6 195/1/6
f 191/1/6 192/1/6 196/1/6
f 195/2/6 191/2/6 196/2/6
f 194/1/6 185/1/6 197/1/6
f 193/1/6 194/1/6 197/1/6
f 185/5/6 186/5/6 197/5/6
f 197/5/6 186/5/6 198/5/6
f 173/2/6 174/2/6 199/2/6
f 182/1/6 173/1/6 199/1/6
f 196/1/6 192/1/6 199/1/6
f 195/1/6 196/1/6 199/1/6
f 192/1/6 182/1/6 199/1/6
f 197/1/6 198/1/6 200/1/6
f 199/2/6 174/2/6 200/2/6
f 193/1/6 197/1/6 200/1/6
f 174/1/6 193/1/6 200/1/6
f 171/1/6 187/1/6 201/1/6
f 159/1/6 171/1/6 201/1/6
f 199/1/6 200/1/6 201/1/6
f 187/1/6 195/1/6 201/1/6
f 195/1/6 199/1/6 201/1/6
f 201/1/6 200/1/6 202/1/6
f 202/1/6 200/1/6 203/1/6
f 203/1/6 200/1/6 204/1/6
f 200/1/6 198/1/6 205/1/6
f 204/1/6 200/1/6 205/1/6
f 205/1/6 198/1/6 206/1/6
f 206/1/6 198/1/6 207/1/6
f 207/1/6 198/1/6 208/1/6
f 159/1/6 201/1/6 209/1/6
f 201/2/6 202/2/6 209/2/6
f 202/1/6 203/1/6 210/1/6
f 209/2/6 202/2/6 210/2/6
f 204/1/6 205/1/6 211/1/6
f 211/1/6 205/1/6 212/1/6
f 205/2/6 206/2/6 213/2/6
f 206/1/6 207/1/6 213/1/6
f 213/1/6 207/1/6 214/1/6
f 207/5/6 208/5/6 215/5/6
f 214/1/6 207/1/6 215/1/6
f 215/5/6 208/5/6 216/5/6
f 212/1/6 205/1/6 217/1/6
f 217/1/6 205/1/6 218/1/6
f 204/1/6 211/1/6 219/1/6
f 219/1/6 211/1/6 220/1/6
f 203/2/6 204/2/6 221/2/6
f 210/1/6 203/1/6 221/1/6
f 209/1/6 210/1/6 221/1/6
f 204/1/6 219/1/6 222/1/6
f 221/2/6 204/2/6 222/2/6
f 214/1/6 215/1/6 223/1/6
f 215/1/6 216/1/6 223/1/6
f 223/1/6 216/1/6 224/1/6
f 219/2/6 220/2/6 225/2/6
f 222/1/6 219/1/6 225/1/6
f 221/1/6 222/1/6 225/1/6
f 220/1/6 211/1/6 226/1/6
f 225/2/6 220/2/6 226/2/6
f 211/2/6 212/2/6 227/2/6
f 226/1/6 211/1/6 227/1/6
f 225/1/6 226/1/6 227/1/6
f 212/1/6 217/1/6 228/1/6
f 227/2/6 212/2/6 228/2/6
f 221/1/6 225/1/6 229/1/6
f 225/1/6 227/1/6 229/1/6
f 227/1/6 228/1/6 229/1/6
f 229/1/6 228/1/6 230/1/6
f 223/5/6 224/5/6 231/5/6
f 214/1/6 223/1/6 231/1/6
f 231/5/6 224/5/6 232/5/6
f 213/2/6 214/2/6 233/2/6
f 205/2/6 213/2/6 233/2/6
f 231/1/6 232/1/6 234/1/6
f 233/2/6 214/2/6 234/2/6
f 214/1/6 231/1/6 234/1/6
f 229/2/6 230/2/6 235/2/6
f 221/1/6 229/1/6 235/1/6
f 230/1/6 228/1/6 236/1/6
f 235/2/6 230/2/6 236/2/6
f 159/1/6 209/1/6 237/1/6
f 209/1/6 221/1/6 237/1/6
f 235/1/6 236/1/6 237/1/6
f 221/1/6 235/1/6 237/1/6
f 237/1/6 236/1/6 238/1/6
f 233/1/6 234/1/6 239/1/6
f 234/1/6 232/1/6 239/1/6
f 239/1/6 232/1/6 240/1/6
f 218/1/6 205/1/6 241/1/6
f 205/2/6 233/2/6 241/2/6
f 233/1/6 239/1/6 242/1/6
f 241/2/6 233/2/6 242/2/6
f 237/2/6 238/2/6 243/2/6
f 159/1/6 237/1/6 243/1/6
f 238/1/6 236/1/6 244/1/6
f 243/2/6 238/2/6 244/2/6
f 228/1/6 217/1/6 245/1/6
f 244/1/6 236/1/6 245/1/6
f 236/1/6 228/1/6 245/1/6
f 217/2/6 218/2/6 245/2/6
f 218/1/6 241/1/6 246/1/6
f 245/2/6 218/2/6 246/2/6
f 241/1/6 242/1/6 246/1/6
f 242/1/6 239/1/6 247/1/6
f 246/1/6 242/1/6 247/1/6
f 239/5/6 240/5/6 247/5/6
f 247/5/6 240/5/6 248/5/6
f 243/1/6 244/1/6 249/1/6
f 244/1/6 245/1/6 249/1/6
f 247/1/6 248/1/6 249/1/6
f 246/1/6 247/1/6 249/1/6
f 245/1/6 246/1/6 249/1/6
f 159/1/6 243/1/6 249/1/6
f 249/1/6 248/1/6 250/1/6
f 251/3/6 252/3/6 254/3/6
f 252/6/6 253/6/6 255/6/6
f 254/3/6 252/3/6 255/3/6
f 255/6/6 253/6/6 256/6/6
f 257/4/6 258/4/6 259/4/6
f 259/4/6 258/4/6 260/4/6
