# MagicaVoxel @ Ephtracy

# group
o 

# material
mtllib road_turn_in.mtl
usemtl palette

# normals
vn -1 0 0
vn 1 0 0
vn 0 0 1
vn 0 0 -1
vn 0 -1 0
vn 0 1 0

# texcoords
vt 0.970703 0.5
vt 0.974609 0.5
vt 0.978516 0.5
vt 0.982422 0.5
vt 0.990234 0.5
vt 0.994141 0.5

# verts
v -5 0 5
v -5 0 3.6
v -5 0 3.4
v -5 0 2.6
v -5 0 1.3
v -5 0 1.2
v -5 0 -5
v -5 0.1 2.6
v -5 0.1 1.3
v -5 0.1 1.2
v -5 0.1 -5
v -5 0.2 5
v -5 0.2 3.6
v -5 0.2 3.4
v -5 0.3 3.4
v -5 0.3 2.6
v -3.4 0.2 5
v -3.4 0.2 3.6
v -3.4 0.2 3.4
v -3.4 0.3 5
v -3.4 0.3 3.4
v -2.6 0.1 5
v -2.6 0.1 2.6
v -2.6 0.3 5
v -2.6 0.3 2.6
v 5 0 5
v 5 0 4.5
v 5 0 3.5
v 5 0 2.5
v 5 0 1.5
v 5 0 0.5
v 5 0 -0.5
v 5 0 -1.5
v 5 0 -2.5
v 5 0 -3.5
v 5 0 -4.5
v 5 0 -5
v 5 0.1 5
v 5 0.1 4.5
v 5 0.1 3.5
v 5 0.1 2.5
v 5 0.1 1.5
v 5 0.1 0.5
v 5 0.1 -0.5
v 5 0.1 -1.5
v 5 0.1 -2.5
v 5 0.1 -3.5
v 5 0.1 -4.5
v 5 0.1 -5
v -5 0 5
v -5 0.2 5
v -3.4 0 5
v -3.4 0.2 5
v -3.4 0.3 5
v -2.6 0 5
v -2.6 0.1 5
v -2.6 0.3 5
v 2.5 0 5
v 2.5 0.1 5
v 2.7 0 5
v 2.7 0.1 5
v 4.4 0 5
v 4.4 0.1 5
v 4.6 0 5
v 4.6 0.1 5
v 5 0 5
v 5 0.1 5
v -5 0.2 3.4
v -5 0.3 3.4
v -3.4 0.2 3.4
v -3.4 0.3 3.4
v -5 0.1 2.6
v -5 0.3 2.6
v -2.6 0.1 2.6
v -2.6 0.3 2.6
v -5 0 -5
v -5 0.1 -5
v -4.5 0 -5
v -4.5 0.1 -5
v -3.5 0 -5
v -3.5 0.1 -5
v -2.5 0 -5
v -2.5 0.1 -5
v -1.5 0 -5
v -1.5 0.1 -5
v -0.5 0 -5
v -0.5 0.1 -5
v 0.5 0 -5
v 0.5 0.1 -5
v 1.5 0 -5
v 1.5 0.1 -5
v 2.5 0 -5
v 2.5 0.1 -5
v 3.5 0 -5
v 3.5 0.1 -5
v 4.5 0 -5
v 4.5 0.1 -5
v 5 0 -5
v 5 0.1 -5
v -5 0 5
v -3.4 0 5
v -2.6 0 5
v 2.5 0 5
v 2.7 0 5
v 4.4 0 5
v 4.6 0 5
v 5 0 5
v -3.4 0 4.9
v -3.3 0 4.9
v -0.0999999 0 4.8
v 0.1 0 4.8
v 4.9 0 4.5
v 5 0 4.5
v 4.4 0 4.2
v 4.6 0 4.2
v -5 0 3.6
v -4.9 0 3.6
v 2.5 0 3.6
v 2.7 0 3.6
v 1.5 0 3.5
v 1.7 0 3.5
v 4.9 0 3.5
v 5 0 3.5
v -5 0 3.4
v -4.9 0 3.4
v -3.3 0 3.4
v -0.0999999 0 3
v 0.1 0 3
v -5 0 2.6
v -2.6 0 2.6
v 4.9 0 2.5
v 5 0 2.5
v -0.8 0 2
v -0.6 0 2
v 4 0 1.5
v 4.2 0 1.5
v 4.9 0 1.5
v 5 0 1.5
v -4.9 0 1.4
v -4.8 0 1.4
v -3.3 0 1.4
v -2.8 0 1.4
v -5 0 1.3
v -4.9 0 1.3
v -4.8 0 1.3
v -3.5 0 1.3
v -5 0 1.2
v -3.5 0 1.2
v -3.3 0 1.2
v -2.8 0 1.2
v -2.4 0 0.6
v -1.4 0 0.6
v 4.9 0 0.5
v 5 0 0.5
v -0.8 0 0.4
v -0.6 0 0.4
v 4 0 0.4
v 4.2 0 0.4
v -2.4 0 0.2
v -1.4 0 0.2
v 4.9 0 -0.5
v 5 0 -0.5
v -1.9 0 -0.9
v -1.2 0 -0.9
v -0.3 0 -1.1
v 0 0 -1.1
v 2.3 0 -1.1
v 2.5 0 -1.1
v -1.2 0 -1.2
v -0.3 0 -1.2
v -1.9 0 -1.4
v -1.6 0 -1.4
v -4.6 0 -1.5
v -4.2 0 -1.5
v 1.5 0 -1.5
v 1.7 0 -1.5
v 4.9 0 -1.5
v 5 0 -1.5
v -4.6 0 -1.9
v -4.2 0 -1.9
v 2.3 0 -2.5
v 2.5 0 -2.5
v 4.9 0 -2.5
v 5 0 -2.5
v -1.6 0 -2.6
v 0 0 -2.6
v -1.5 0 -2.8
v 0.6 0 -2.8
v -4.5 0 -3
v -3.1 0 -3
v -1.5 0 -3.2
v 0.6 0 -3.2
v -4.5 0 -3.3
v -3.1 0 -3.3
v 4.9 0 -3.5
v 5 0 -3.5
v 4.9 0 -4.5
v 5 0 -4.5
v -4.5 0 -4.9
v -3.5 0 -4.9
v -2.5 0 -4.9
v -1.5 0 -4.9
v -0.5 0 -4.9
v 0.5 0 -4.9
v 1.5 0 -4.9
v 2.5 0 -4.9
v 3.5 0 -4.9
v 4.5 0 -4.9
v -5 0 -5
v -4.5 0 -5
v -3.5 0 -5
v -2.5 0 -5
v -1.5 0 -5
v -0.5 0 -5
v 0.5 0 -5
v 1.5 0 -5
v 2.5 0 -5
v 3.5 0 -5
v 4.5 0 -5
v 5 0 -5
v -2.6 0.1 5
v 2.5 0.1 5
v 2.7 0.1 5
v 4.4 0.1 5
v 4.6 0.1 5
v 5 0.1 5
v -0.0999999 0.1 4.8
v 0.1 0.1 4.8
v 4.9 0.1 4.5
v 5 0.1 4.5
v 4.4 0.1 4.2
v 4.6 0.1 4.2
v 2.5 0.1 3.6
v 2.7 0.1 3.6
v 1.5 0.1 3.5
v 1.7 0.1 3.5
v 4.9 0.1 3.5
v 5 0.1 3.5
v -0.0999999 0.1 3
v 0.1 0.1 3
v -5 0.1 2.6
v -2.6 0.1 2.6
v 4.9 0.1 2.5
v 5 0.1 2.5
v -0.8 0.1 2
v -0.6 0.1 2
v 4 0.1 1.5
v 4.2 0.1 1.5
v 4.9 0.1 1.5
v 5 0.1 1.5
v -4.9 0.1 1.4
v -4.8 0.1 1.4
v -3.3 0.1 1.4
v -2.8 0.1 1.4
v -5 0.1 1.3
v -4.9 0.1 1.3
v -4.8 0.1 1.3
v -3.5 0.1 1.3
v -5 0.1 1.2
v -3.5 0.1 1.2
v -3.3 0.1 1.2
v -2.8 0.1 1.2
v -2.4 0.1 0.6
v -1.4 0.1 0.6
v 4.9 0.1 0.5
v 5 0.1 0.5
v -0.8 0.1 0.4
v -0.6 0.1 0.4
v 4 0.1 0.4
v 4.2 0.1 0.4
v -2.4 0.1 0.2
v -1.4 0.1 0.2
v 4.9 0.1 -0.5
v 5 0.1 -0.5
v -1.9 0.1 -0.9
v -1.2 0.1 -0.9
v -0.3 0.1 -1.1
v 0 0.1 -1.1
v 2.3 0.1 -1.1
v 2.5 0.1 -1.1
v -1.2 0.1 -1.2
v -0.3 0.1 -1.2
v -1.9 0.1 -1.4
v -1.6 0.1 -1.4
v -4.6 0.1 -1.5
v -4.2 0.1 -1.5
v 1.5 0.1 -1.5
v 1.7 0.1 -1.5
v 4.9 0.1 -1.5
v 5 0.1 -1.5
v -4.6 0.1 -1.9
v -4.2 0.1 -1.9
v 2.3 0.1 -2.5
v 2.5 0.1 -2.5
v 4.9 0.1 -2.5
v 5 0.1 -2.5
v -1.6 0.1 -2.6
v 0 0.1 -2.6
v -1.5 0.1 -2.8
v 0.6 0.1 -2.8
v -4.5 0.1 -3
v -3.1 0.1 -3
v -1.5 0.1 -3.2
v 0.6 0.1 -3.2
v -4.5 0.1 -3.3
v -3.1 0.1 -3.3
v 4.9 0.1 -3.5
v 5 0.1 -3.5
v 4.9 0.1 -4.5
v 5 0.1 -4.5
v -4.5 0.1 -4.9
v -3.5 0.1 -4.9
v -2.5 0.1 -4.9
v -1.5 0.1 -4.9
v -0.5 0.1 -4.9
v 0.5 0.1 -4.9
v 1.5 0.1 -4.9
v 2.5 0.1 -4.9
v 3.5 0.1 -4.9
v 4.5 0.1 -4.9
v -5 0.1 -5
v -4.5 0.1 -5
v -3.5 0.1 -5
v -2.5 0.1 -5
v -1.5 0.1 -5
v -0.5 0.1 -5
v 0.5 0.1 -5
v 1.5 0.1 -5
v 2.5 0.1 -5
v 3.5 0.1 -5
v 4.5 0.1 -5
v 5 0.1 -5
v -5 0.2 5
v -3.4 0.2 5
v -5 0.2 3.6
v -3.4 0.2 3.6
v -5 0.2 3.4
v -3.4 0.2 3.4
v -3.4 0.3 5
v -2.6 0.3 5
v -5 0.3 3.4
v -3.4 0.3 3.4
v -5 0.3 2.6
v -2.6 0.3 2.6

# faces
f 8/4/1 4/4/1 3/4/1
f 8/1/1 5/1/1 4/1/1
f 9/2/1 6/2/1 5/2/1
f 9/1/1 5/1/1 8/1/1
f 10/1/1 7/1/1 6/1/1
f 10/2/1 6/2/1 9/2/1
f 11/1/1 7/1/1 10/1/1
f 12/3/1 2/3/1 1/3/1
f 13/6/1 3/6/1 2/6/1
f 13/3/1 2/3/1 12/3/1
f 14/4/1 8/4/1 3/4/1
f 14/6/1 3/6/1 13/6/1
f 15/4/1 8/4/1 14/4/1
f 16/4/1 8/4/1 15/4/1
f 20/4/1 18/4/1 17/4/1
f 20/4/1 19/4/1 18/4/1
f 21/4/1 19/4/1 20/4/1
f 22/4/2 23/4/2 24/4/2
f 24/4/2 23/4/2 25/4/2
f 26/1/2 27/1/2 38/1/2
f 27/5/2 28/5/2 39/5/2
f 38/1/2 27/1/2 39/1/2
f 28/1/2 29/1/2 40/1/2
f 39/5/2 28/5/2 40/5/2
f 29/5/2 30/5/2 41/5/2
f 40/1/2 29/1/2 41/1/2
f 30/1/2 31/1/2 42/1/2
f 41/5/2 30/5/2 42/5/2
f 31/5/2 32/5/2 43/5/2
f 42/1/2 31/1/2 43/1/2
f 32/1/2 33/1/2 44/1/2
f 43/5/2 32/5/2 44/5/2
f 33/5/2 34/5/2 45/5/2
f 44/1/2 33/1/2 45/1/2
f 34/1/2 35/1/2 46/1/2
f 45/5/2 34/5/2 46/5/2
f 35/5/2 36/5/2 47/5/2
f 46/1/2 35/1/2 47/1/2
f 36/1/2 37/1/2 48/1/2
f 47/5/2 36/5/2 48/5/2
f 48/1/2 37/1/2 49/1/2
f 52/3/3 51/3/3 50/3/3
f 53/3/3 51/3/3 52/3/3
f 55/4/3 53/4/3 52/4/3
f 55/4/3 54/4/3 53/4/3
f 56/4/3 54/4/3 55/4/3
f 57/4/3 54/4/3 56/4/3
f 58/1/3 56/1/3 55/1/3
f 59/1/3 56/1/3 58/1/3
f 60/2/3 59/2/3 58/2/3
f 61/2/3 59/2/3 60/2/3
f 62/1/3 61/1/3 60/1/3
f 63/1/3 61/1/3 62/1/3
f 64/2/3 63/2/3 62/2/3
f 65/2/3 63/2/3 64/2/3
f 66/1/3 65/1/3 64/1/3
f 67/1/3 65/1/3 66/1/3
f 70/4/3 69/4/3 68/4/3
f 71/4/3 69/4/3 70/4/3
f 72/4/4 73/4/4 74/4/4
f 74/4/4 73/4/4 75/4/4
f 76/1/4 77/1/4 78/1/4
f 78/1/4 77/1/4 79/1/4
f 78/5/4 79/5/4 80/5/4
f 80/5/4 79/5/4 81/5/4
f 80/1/4 81/1/4 82/1/4
f 82/1/4 81/1/4 83/1/4
f 82/5/4 83/5/4 84/5/4
f 84/5/4 83/5/4 85/5/4
f 84/1/4 85/1/4 86/1/4
f 86/1/4 85/1/4 87/1/4
f 86/5/4 87/5/4 88/5/4
f 88/5/4 87/5/4 89/5/4
f 88/1/4 89/1/4 90/1/4
f 90/1/4 89/1/4 91/1/4
f 90/5/4 91/5/4 92/5/4
f 92/5/4 91/5/4 93/5/4
f 92/1/4 93/1/4 94/1/4
f 94/1/4 93/1/4 95/1/4
f 94/5/4 95/5/4 96/5/4
f 96/5/4 95/5/4 97/5/4
f 96/1/4 97/1/4 98/1/4
f 98/1/4 97/1/4 99/1/4
f 108/3/5 101/3/5 100/3/5
f 108/4/5 102/4/5 101/4/5
f 109/4/5 102/4/5 108/4/5
f 110/1/5 103/1/5 102/1/5
f 111/1/5 103/1/5 110/1/5
f 112/1/5 107/1/5 106/1/5
f 113/1/5 107/1/5 112/1/5
f 114/2/5 106/2/5 105/2/5
f 114/1/5 105/1/5 104/1/5
f 115/1/5 112/1/5 106/1/5
f 115/2/5 106/2/5 114/2/5
f 116/3/5 108/3/5 100/3/5
f 116/3/5 109/3/5 108/3/5
f 117/3/5 109/3/5 116/3/5
f 118/1/5 103/1/5 111/1/5
f 118/2/5 104/2/5 103/2/5
f 119/1/5 115/1/5 114/1/5
f 119/2/5 104/2/5 118/2/5
f 119/1/5 114/1/5 104/1/5
f 120/1/5 118/1/5 111/1/5
f 120/1/5 119/1/5 118/1/5
f 121/1/5 119/1/5 120/1/5
f 122/5/5 113/5/5 112/5/5
f 122/1/5 119/1/5 121/1/5
f 122/1/5 112/1/5 115/1/5
f 122/1/5 115/1/5 119/1/5
f 123/5/5 113/5/5 122/5/5
f 124/6/5 117/6/5 116/6/5
f 125/3/5 109/3/5 117/3/5
f 125/6/5 117/6/5 124/6/5
f 126/4/5 102/4/5 109/4/5
f 126/3/5 109/3/5 125/3/5
f 127/1/5 110/1/5 102/1/5
f 127/2/5 111/2/5 110/2/5
f 128/1/5 120/1/5 111/1/5
f 128/2/5 111/2/5 127/2/5
f 129/4/5 125/4/5 124/4/5
f 129/4/5 126/4/5 125/4/5
f 130/1/5 127/1/5 102/1/5
f 130/4/5 126/4/5 129/4/5
f 130/4/5 102/4/5 126/4/5
f 130/1/5 128/1/5 127/1/5
f 131/1/5 123/1/5 122/1/5
f 131/1/5 122/1/5 121/1/5
f 132/1/5 123/1/5 131/1/5
f 133/1/5 128/1/5 130/1/5
f 133/1/5 130/1/5 129/1/5
f 134/1/5 128/1/5 133/1/5
f 135/1/5 131/1/5 121/1/5
f 136/1/5 131/1/5 135/1/5
f 137/5/5 132/5/5 131/5/5
f 137/1/5 131/1/5 136/1/5
f 138/5/5 132/5/5 137/5/5
f 139/1/5 133/1/5 129/1/5
f 140/1/5 133/1/5 139/1/5
f 141/1/5 133/1/5 140/1/5
f 142/1/5 133/1/5 141/1/5
f 143/1/5 139/1/5 129/1/5
f 144/2/5 140/2/5 139/2/5
f 144/1/5 139/1/5 143/1/5
f 145/1/5 141/1/5 140/1/5
f 145/2/5 140/2/5 144/2/5
f 146/1/5 141/1/5 145/1/5
f 147/2/5 144/2/5 143/2/5
f 147/2/5 145/2/5 144/2/5
f 147/2/5 146/2/5 145/2/5
f 148/1/5 141/1/5 146/1/5
f 148/2/5 146/2/5 147/2/5
f 149/2/5 142/2/5 141/2/5
f 149/1/5 141/1/5 148/1/5
f 150/1/5 133/1/5 142/1/5
f 150/2/5 142/2/5 149/2/5
f 151/1/5 149/1/5 148/1/5
f 151/1/5 133/1/5 150/1/5
f 151/1/5 150/1/5 149/1/5
f 151/1/5 148/1/5 147/1/5
f 152/1/5 133/1/5 151/1/5
f 153/1/5 137/1/5 136/1/5
f 153/1/5 138/1/5 137/1/5
f 154/1/5 138/1/5 153/1/5
f 155/2/5 134/2/5 133/2/5
f 155/1/5 133/1/5 152/1/5
f 156/1/5 128/1/5 134/1/5
f 156/2/5 134/2/5 155/2/5
f 157/2/5 136/2/5 135/2/5
f 157/1/5 135/1/5 121/1/5
f 158/1/5 153/1/5 136/1/5
f 158/2/5 136/2/5 157/2/5
f 159/2/5 152/2/5 151/2/5
f 159/1/5 151/1/5 147/1/5
f 160/1/5 155/1/5 152/1/5
f 160/2/5 152/2/5 159/2/5
f 160/1/5 156/1/5 155/1/5
f 161/5/5 154/5/5 153/5/5
f 161/1/5 153/1/5 158/1/5
f 161/1/5 158/1/5 157/1/5
f 162/5/5 154/5/5 161/5/5
f 163/1/5 160/1/5 159/1/5
f 164/1/5 156/1/5 160/1/5
f 164/1/5 160/1/5 163/1/5
f 165/1/5 128/1/5 156/1/5
f 165/1/5 156/1/5 164/1/5
f 166/1/5 128/1/5 165/1/5
f 167/1/5 157/1/5 121/1/5
f 167/1/5 161/1/5 157/1/5
f 167/1/5 162/1/5 161/1/5
f 168/1/5 162/1/5 167/1/5
f 169/2/5 164/2/5 163/2/5
f 169/1/5 165/1/5 164/1/5
f 170/2/5 166/2/5 165/2/5
f 170/1/5 165/1/5 169/1/5
f 171/1/5 163/1/5 159/1/5
f 171/2/5 169/2/5 163/2/5
f 171/2/5 170/2/5 169/2/5
f 172/2/5 170/2/5 171/2/5
f 173/1/5 159/1/5 147/1/5
f 173/1/5 171/1/5 159/1/5
f 173/1/5 172/1/5 171/1/5
f 174/1/5 172/1/5 173/1/5
f 175/1/5 120/1/5 128/1/5
f 175/2/5 121/2/5 120/2/5
f 175/1/5 128/1/5 166/1/5
f 176/1/5 167/1/5 121/1/5
f 176/2/5 121/2/5 175/2/5
f 177/1/5 162/1/5 168/1/5
f 178/1/5 162/1/5 177/1/5
f 179/2/5 174/2/5 173/2/5
f 179/1/5 173/1/5 147/1/5
f 180/1/5 172/1/5 174/1/5
f 180/2/5 174/2/5 179/2/5
f 181/1/5 167/1/5 176/1/5
f 181/2/5 168/2/5 167/2/5
f 181/1/5 176/1/5 175/1/5
f 182/1/5 177/1/5 168/1/5
f 182/2/5 168/2/5 181/2/5
f 183/5/5 178/5/5 177/5/5
f 183/1/5 177/1/5 182/1/5
f 184/5/5 178/5/5 183/5/5
f 185/1/5 172/1/5 180/1/5
f 185/2/5 170/2/5 172/2/5
f 185/1/5 180/1/5 179/1/5
f 186/1/5 184/1/5 183/1/5
f 186/2/5 170/2/5 185/2/5
f 186/1/5 182/1/5 181/1/5
f 186/1/5 181/1/5 175/1/5
f 186/1/5 183/1/5 182/1/5
f 186/1/5 175/1/5 166/1/5
f 186/2/5 166/2/5 170/2/5
f 187/1/5 186/1/5 185/1/5
f 188/1/5 184/1/5 186/1/5
f 188/1/5 186/1/5 187/1/5
f 189/1/5 185/1/5 179/1/5
f 189/1/5 187/1/5 185/1/5
f 190/1/5 187/1/5 189/1/5
f 191/2/5 188/2/5 187/2/5
f 191/1/5 187/1/5 190/1/5
f 192/1/5 184/1/5 188/1/5
f 192/2/5 188/2/5 191/2/5
f 193/2/5 190/2/5 189/2/5
f 193/1/5 189/1/5 179/1/5
f 194/1/5 191/1/5 190/1/5
f 194/2/5 190/2/5 193/2/5
f 194/1/5 192/1/5 191/1/5
f 195/1/5 184/1/5 192/1/5
f 195/1/5 192/1/5 194/1/5
f 195/1/5 194/1/5 193/1/5
f 196/1/5 184/1/5 195/1/5
f 197/1/5 195/1/5 193/1/5
f 197/5/5 196/5/5 195/5/5
f 198/5/5 196/5/5 197/5/5
f 199/1/5 193/1/5 179/1/5
f 199/1/5 197/1/5 193/1/5
f 199/1/5 198/1/5 197/1/5
f 200/1/5 198/1/5 199/1/5
f 201/1/5 198/1/5 200/1/5
f 202/1/5 198/1/5 201/1/5
f 203/1/5 198/1/5 202/1/5
f 204/1/5 198/1/5 203/1/5
f 205/1/5 198/1/5 204/1/5
f 206/1/5 198/1/5 205/1/5
f 207/1/5 198/1/5 206/1/5
f 208/1/5 198/1/5 207/1/5
f 209/1/5 179/1/5 147/1/5
f 209/1/5 199/1/5 179/1/5
f 210/5/5 200/5/5 199/5/5
f 210/1/5 199/1/5 209/1/5
f 211/1/5 201/1/5 200/1/5
f 211/5/5 200/5/5 210/5/5
f 212/5/5 202/5/5 201/5/5
f 212/1/5 201/1/5 211/1/5
f 213/1/5 203/1/5 202/1/5
f 213/5/5 202/5/5 212/5/5
f 214/5/5 204/5/5 203/5/5
f 214/1/5 203/1/5 213/1/5
f 215/1/5 205/1/5 204/1/5
f 215/5/5 204/5/5 214/5/5
f 216/5/5 206/5/5 205/5/5
f 216/1/5 205/1/5 215/1/5
f 217/1/5 207/1/5 206/1/5
f 217/5/5 206/5/5 216/5/5
f 218/5/5 208/5/5 207/5/5
f 218/1/5 207/1/5 217/1/5
f 219/1/5 198/1/5 208/1/5
f 219/5/5 208/5/5 218/5/5
f 220/1/5 198/1/5 219/1/5
f 221/1/6 222/1/6 227/1/6
f 227/1/6 222/1/6 228/1/6
f 225/1/6 226/1/6 229/1/6
f 229/1/6 226/1/6 230/1/6
f 223/1/6 224/1/6 231/1/6
f 224/2/6 225/2/6 231/2/6
f 225/1/6 229/1/6 232/1/6
f 231/2/6 225/2/6 232/2/6
f 228/1/6 222/1/6 233/1/6
f 222/2/6 223/2/6 233/2/6
f 231/1/6 232/1/6 234/1/6
f 233/2/6 223/2/6 234/2/6
f 223/1/6 231/1/6 234/1/6
f 228/1/6 233/1/6 235/1/6
f 233/1/6 234/1/6 235/1/6
f 235/1/6 234/1/6 236/1/6
f 232/1/6 229/1/6 237/1/6
f 236/1/6 234/1/6 237/1/6
f 234/1/6 232/1/6 237/1/6
f 229/5/6 230/5/6 237/5/6
f 237/5/6 230/5/6 238/5/6
f 227/2/6 228/2/6 239/2/6
f 221/1/6 227/1/6 239/1/6
f 228/1/6 235/1/6 240/1/6
f 239/2/6 228/2/6 240/2/6
f 221/1/6 239/1/6 242/1/6
f 239/1/6 240/1/6 242/1/6
f 237/1/6 238/1/6 243/1/6
f 236/1/6 237/1/6 243/1/6
f 243/1/6 238/1/6 244/1/6
f 241/1/6 242/1/6 245/1/6
f 242/1/6 240/1/6 245/1/6
f 245/1/6 240/1/6 246/1/6
f 236/1/6 243/1/6 247/1/6
f 247/1/6 243/1/6 248/1/6
f 243/5/6 244/5/6 249/5/6
f 248/1/6 243/1/6 249/1/6
f 249/5/6 244/5/6 250/5/6
f 241/1/6 245/1/6 251/1/6
f 251/1/6 245/1/6 252/1/6
f 252/1/6 245/1/6 253/1/6
f 253/1/6 245/1/6 254/1/6
f 241/1/6 251/1/6 255/1/6
f 251/2/6 252/2/6 256/2/6
f 255/1/6 251/1/6 256/1/6
f 252/1/6 253/1/6 257/1/6
f 256/2/6 252/2/6 257/2/6
f 257/1/6 253/1/6 258/1/6
f 255/2/6 256/2/6 259/2/6
f 256/2/6 257/2/6 259/2/6
f 257/2/6 258/2/6 259/2/6
f 258/1/6 253/1/6 260/1/6
f 259/2/6 258/2/6 260/2/6
f 253/2/6 254/2/6 261/2/6
f 260/1/6 253/1/6 261/1/6
f 254/1/6 245/1/6 262/1/6
f 261/2/6 254/2/6 262/2/6
f 260/1/6 261/1/6 263/1/6
f 262/1/6 245/1/6 263/1/6
f 261/1/6 262/1/6 263/1/6
f 259/1/6 260/1/6 263/1/6
f 263/1/6 245/1/6 264/1/6
f 248/1/6 249/1/6 265/1/6
f 249/1/6 250/1/6 265/1/6
f 265/1/6 250/1/6 266/1/6
f 245/2/6 246/2/6 267/2/6
f 264/1/6 245/1/6 267/1/6
f 246/1/6 240/1/6 268/1/6
f 267/2/6 246/2/6 268/2/6
f 247/2/6 248/2/6 269/2/6
f 236/1/6 247/1/6 269/1/6
f 248/1/6 265/1/6 270/1/6
f 269/2/6 248/2/6 270/2/6
f 263/2/6 264/2/6 271/2/6
f 259/1/6 263/1/6 271/1/6
f 264/1/6 267/1/6 272/1/6
f 271/2/6 264/2/6 272/2/6
f 267/1/6 268/1/6 272/1/6
f 265/5/6 266/5/6 273/5/6
f 270/1/6 265/1/6 273/1/6
f 269/1/6 270/1/6 273/1/6
f 273/5/6 266/5/6 274/5/6
f 271/1/6 272/1/6 275/1/6
f 272/1/6 268/1/6 276/1/6
f 275/1/6 272/1/6 276/1/6
f 268/1/6 240/1/6 277/1/6
f 276/1/6 268/1/6 277/1/6
f 277/1/6 240/1/6 278/1/6
f 236/1/6 269/1/6 279/1/6
f 269/1/6 273/1/6 279/1/6
f 273/1/6 274/1/6 279/1/6
f 279/1/6 274/1/6 280/1/6
f 275/2/6 276/2/6 281/2/6
f 276/1/6 277/1/6 281/1/6
f 277/2/6 278/2/6 282/2/6
f 281/1/6 277/1/6 282/1/6
f 271/1/6 275/1/6 283/1/6
f 275/2/6 281/2/6 283/2/6
f 281/2/6 282/2/6 283/2/6
f 283/2/6 282/2/6 284/2/6
f 259/1/6 271/1/6 285/1/6
f 271/1/6 283/1/6 285/1/6
f 283/1/6 284/1/6 285/1/6
f 285/1/6 284/1/6 286/1/6
f 235/2/6 236/2/6 287/2/6
f 240/1/6 235/1/6 287/1/6
f 278/1/6 240/1/6 287/1/6
f 236/1/6 279/1/6 288/1/6
f 287/2/6 236/2/6 288/2/6
f 280/1/6 274/1/6 289/1/6
f 289/1/6 274/1/6 290/1/6
f 285/2/6 286/2/6 291/2/6
f 259/1/6 285/1/6 291/1/6
f 286/1/6 284/1/6 292/1/6
f 291/2/6 286/2/6 292/2/6
f 288/1/6 279/1/6 293/1/6
f 279/2/6 280/2/6 293/2/6
f 287/1/6 288/1/6 293/1/6
f 280/1/6 289/1/6 294/1/6
f 293/2/6 280/2/6 294/2/6
f 289/5/6 290/5/6 295/5/6
f 294/1/6 289/1/6 295/1/6
f 295/5/6 290/5/6 296/5/6
f 292/1/6 284/1/6 297/1/6
f 284/2/6 282/2/6 297/2/6
f 291/1/6 292/1/6 297/1/6
f 295/1/6 296/1/6 298/1/6
f 297/2/6 282/2/6 298/2/6
f 293/1/6 294/1/6 298/1/6
f 287/1/6 293/1/6 298/1/6
f 294/1/6 295/1/6 298/1/6
f 278/1/6 287/1/6 298/1/6
f 282/2/6 278/2/6 298/2/6
f 297/1/6 298/1/6 299/1/6
f 298/1/6 296/1/6 300/1/6
f 299/1/6 298/1/6 300/1/6
f 291/1/6 297/1/6 301/1/6
f 297/1/6 299/1/6 301/1/6
f 301/1/6 299/1/6 302/1/6
f 299/2/6 300/2/6 303/2/6
f 302/1/6 299/1/6 303/1/6
f 300/1/6 296/1/6 304/1/6
f 303/2/6 300/2/6 304/2/6
f 301/2/6 302/2/6 305/2/6
f 291/1/6 301/1/6 305/1/6
f 302/1/6 303/1/6 306/1/6
f 305/2/6 302/2/6 306/2/6
f 303/1/6 304/1/6 306/1/6
f 304/1/6 296/1/6 307/1/6
f 306/1/6 304/1/6 307/1/6
f 305/1/6 306/1/6 307/1/6
f 307/1/6 296/1/6 308/1/6
f 305/1/6 307/1/6 309/1/6
f 307/5/6 308/5/6 309/5/6
f 309/5/6 308/5/6 310/5/6
f 291/1/6 305/1/6 311/1/6
f 305/1/6 309/1/6 311/1/6
f 309/1/6 310/1/6 311/1/6
f 311/1/6 310/1/6 312/1/6
f 312/1/6 310/1/6 313/1/6
f 313/1/6 310/1/6 314/1/6
f 314/1/6 310/1/6 315/1/6
f 315/1/6 310/1/6 316/1/6
f 316/1/6 310/1/6 317/1/6
f 317/1/6 310/1/6 318/1/6
f 318/1/6 310/1/6 319/1/6
f 319/1/6 310/1/6 320/1/6
f 259/1/6 291/1/6 321/1/6
f 291/1/6 311/1/6 321/1/6
f 311/5/6 312/5/6 322/5/6
f 321/1/6 311/1/6 322/1/6
f 312/1/6 313/1/6 323/1/6
f 322/5/6 312/5/6 323/5/6
f 313/5/6 314/5/6 324/5/6
f 323/1/6 313/1/6 324/1/6
f 314/1/6 315/1/6 325/1/6
f 324/5/6 314/5/6 325/5/6
f 315/5/6 316/5/6 326/5/6
f 325/1/6 315/1/6 326/1/6
f 316/1/6 317/1/6 327/1/6
f 326/5/6 316/5/6 327/5/6
f 317/5/6 318/5/6 328/5/6
f 327/1/6 317/1/6 328/1/6
f 318/1/6 319/1/6 329/1/6
f 328/5/6 318/5/6 329/5/6
f 319/5/6 320/5/6 330/5/6
f 329/1/6 319/1/6 330/1/6
f 320/1/6 310/1/6 331/1/6
f 330/5/6 320/5/6 331/5/6
f 331/1/6 310/1/6 332/1/6
f 333/3/6 334/3/6 335/3/6
f 335/3/6 334/3/6 336/3/6
f 335/6/6 336/6/6 337/6/6
f 337/6/6 336/6/6 338/6/6
f 339/4/6 340/4/6 342/4/6
f 341/4/6 342/4/6 343/4/6
f 342/4/6 340/4/6 344/4/6
f 343/4/6 342/4/6 344/4/6
